<?xml version="1.0" encoding="iso-8859-1"?>
<!-- Generator: Adobe Illustrator 19.0.0, SVG Export Plug-In . SVG Version: 6.00 Build 0)  -->
<svg version="1.1" id="Capa_1" xmlns="http://www.w3.org/2000/svg" xmlns:xlink="http://www.w3.org/1999/xlink" x="0px" y="0px"
	 viewBox="0 0 475.312 475.312" style="enable-background:new 0 0 475.312 475.312;" xml:space="preserve">
<g>
	<g>
		<path d="M301.656,227.312c30.911-0.04,55.96-25.089,56-56v-24h-72c-15.067-0.004-29.494,6.088-40,16.888v-13.808l20.28-20.28
			c28.071-28.141,28.071-73.691,0-101.832L237.656,0l-28.28,28.28c-28.071,28.141-28.071,73.691,0,101.832l20.28,20.28V188.2
			c-10.506-10.8-24.933-16.892-40-16.888h-72v24c0.04,30.911,25.089,55.96,56,56h56v32h-112v48h16.432l8,144h191.136l8-144h16.432
			v-48h-112v-56H301.656z M285.656,163.312h56v8c-0.026,22.08-17.92,39.974-40,40h-56v-8
			C245.682,181.232,263.576,163.338,285.656,163.312z M173.656,235.312c-22.08-0.026-39.974-17.92-40-40v-8h56
			c22.08,0.026,39.974,17.92,40,40v8H173.656z M318.088,459.312H157.224l-7.112-128H325.2L318.088,459.312z M341.656,299.312v16
			h-208v-16H341.656z M229.656,75.312v52.456l-8.968-8.968c-21.838-21.887-21.838-57.321,0-79.208l16.968-16.968l16.968,16.968
			c21.832,21.886,21.832,57.314,0,79.2l-8.968,8.976V75.312H229.656z"/>
	</g>
</g>
<g>
	<g>
		<rect x="293.656" y="339.312" width="16" height="16"/>
	</g>
</g>
<g>
	<g>
		<rect x="293.656" y="363.312" width="16" height="16"/>
	</g>
</g>
<g>
	<g>
		<rect x="269.656" y="339.312" width="16" height="16"/>
	</g>
</g>
<g>
</g>
<g>
</g>
<g>
</g>
<g>
</g>
<g>
</g>
<g>
</g>
<g>
</g>
<g>
</g>
<g>
</g>
<g>
</g>
<g>
</g>
<g>
</g>
<g>
</g>
<g>
</g>
<g>
</g>
</svg>
