<svg height="512pt" viewBox="0 -65 512.00018 512" width="512pt" xmlns="http://www.w3.org/2000/svg"><path d="m507.375 161.785156-55.460938-70.753906c-4.015624-5.128906-9.378906-7.960938-15.105468-7.976562-.011719 0-.027344 0-.042969 0-6.78125 0-13.269531 3.855468-19.285156 11.460937-.160157.207031-.3125.417969-.453125.640625-5.273438 8.324219-8.648438 17.808594-9.871094 27.617188l-38.570312 30.574218v-48.570312c0-.609375.011718-1.179688.019531-1.730469.085937-5.53125-.152344-9.636719-4.175781-20.042969l-20.0625-51.929687c-1.382813-3.554688-5.054688-12.996094-15.195313-12.996094h-50.621094c-9.027343 0-12.585937 7.46875-14.710937 11.933594l-19.175782 40.652343c-2.703124 5.730469-5.039062 10.683594-6.441406 11.667969-1.035156.726563-5.390625.726563-10.433594.726563h-4.726562c-6.335938-22.457032-19.640625-42.746094-37.945312-57.621094-20.1875-16.402344-45.566407-25.4375-71.457032-25.4375-62.671875 0-113.660156 51.007812-113.660156 113.707031v23.859375c0 4.136719 3.355469 7.492188 7.492188 7.492188 4.136718 0 7.492187-3.355469 7.492187-7.492188v-23.859375c0-54.433593 44.265625-98.71875 98.675781-98.71875 42.582032 0 80.601563 28.117188 93.757813 68.070313h-26.800781c-11.949219-25.964844-38.21875-43.074219-66.957032-43.074219-40.632812 0-73.691406 33.070313-73.691406 73.722656v84.984375c0 38.859375 30.21875 70.773438 68.378906 73.507813v25.09375c-51.945312-2.773438-93.363281-45.941407-93.363281-98.601563v-26.636718c0-4.140626-3.355469-7.496094-7.492187-7.496094-4.136719 0-7.492188 3.355468-7.492188 7.492187v26.640625c0 60.929688 48.132812 110.816406 108.347656 113.605469v15.328125c-9.117187 1.128906-16.203125 8.898438-16.203125 18.308594v16.605468c0 10.179688 8.292969 18.460938 18.484375 18.460938h255.902344c10.175781 0 18.457031-8.28125 18.457031-18.460938v-16.605468c0-9.488282-7.191406-17.316406-16.402343-18.339844v-6.027344l96.859374-123.925781c2.769532.34375 5.550782.53125 8.328126.53125 7.230468 0 14.425781-1.15625 21.277343-3.453125.25-.085938.492188-.183594.730469-.289062 8.816406-4.027344 14.105469-9.410157 15.722656-16 1.363282-5.566407-.097656-11.464844-4.128906-16.644532zm-452.421875 36.90625v-84.984375c0-32.386719 26.335937-58.730469 58.707031-58.730469 20.496094 0 39.425782 10.933594 49.996094 28.082032h-19.203125c-19.90625 0-36.101563 16.796875-36.101563 37.449218v136.660157c-29.890624-2.695313-53.398437-27.886719-53.398437-58.476563zm315.050781 147.242188v16.605468c0 1.882813-1.589844 3.46875-3.472656 3.46875h-255.902344c-1.894531 0-3.496094-1.589843-3.496094-3.46875v-16.605468c0-1.882813 1.601563-3.472656 3.496094-3.472656h111.183594c4.136719 0 7.492188-3.355469 7.492188-7.496094 0-4.136719-3.355469-7.492188-7.492188-7.492188h-98.476562v-206.964844c0-12.382812 9.472656-22.460937 21.117187-22.460937h83.335937c8.8125 0 14.128907 0 19.039063-3.445313 4.65625-3.261718 7.046875-8.335937 11.390625-17.542968l18.875-40.027344.273438-.570312c.515624-1.085938 1.253906-2.632813 1.785156-3.390626h49.597656c.300781.402344.832031 1.328126 1.648438 3.421876l20.054687 51.917968c3.261719 8.4375 3.226563 10.683594 3.171875 14.402344-.011719.625-.019531 1.273438-.019531 1.964844v222.691406h-97.175781c-4.140626 0-7.492188 3.355469-7.492188 7.496094 0 4.136718 3.355469 7.496094 7.492188 7.496094h110.105468c1.878906 0 3.46875 1.589843 3.46875 3.472656zm-1.417968-48.707032v-124.753906l44.378906-35.171875 39.816406 52.207031zm128.363281-122.367187c-.164063.660156-1.148438 3.007813-7.035157 5.769531-7.527343 2.457032-15.59375 3.152344-23.503906 2.039063l-44.371094-58.183594c.941407-7.4375 3.488282-14.628906 7.433594-20.96875 4.09375-5.066406 6.605469-5.46875 7.296875-5.46875h.003907c1.488281.003906 2.9375 1.707031 3.347656 2.230469l27.730468 35.394531h.003907l27.714843 35.347656c.414063.53125 1.734376 2.378907 1.378907 3.839844zm0 0"/><path d="m296.496094 241.679688c0-9.042969-2.320313-18.035157-6.710938-26.003907-.023437-.042969-.046875-.085937-.070312-.128906l-21.644532-37.519531c-.03125-.058594-.0625-.113282-.097656-.167969-2.707031-4.425781-2.707031-4.425781-3.417968-5.644531-.738282-1.261719-2.269532-3.890625-8.039063-13.554688-.097656-.160156-.199219-.320312-.308594-.476562-4.289062-6.085938-10.628906-9.550782-17.410156-9.472656-7.078125.066406-13.566406 3.941406-18.265625 10.898437-.066406.097656-.128906.199219-.191406.296875l-10.933594 17.96875c-.023438.039062-.046875.082031-.070312.121094l-21.871094 37.519531c-.027344.050781-.058594.105469-.089844.160156-4.386719 7.96875-6.707031 16.960938-6.707031 26.003907 0 30.664062 25.980469 55.613281 57.914062 55.613281 31.933594 0 57.914063-24.949219 57.914063-55.613281zm-57.914063 40.621093c-23.671875 0-42.929687-18.222656-42.929687-40.621093 0-6.492188 1.660156-12.953126 4.808594-18.695313l21.78125-37.375 10.796874-17.742187c1.839844-2.671876 3.933594-4.148438 5.90625-4.167969 1.699219-.023438 3.480469 1.042969 4.867188 2.921875 5.597656 9.375 7.082031 11.921875 7.800781 13.152344.785157 1.34375.789063 1.355468 3.527344 5.828124l21.554687 37.367188c3.152344 5.746094 4.816407 12.214844 4.816407 18.707031 0 22.402344-19.257813 40.625-42.929688 40.625zm0 0"/></svg>